:FULLY-SPECIFIED
:FORCE-ALL-JOINTS-BE-3DOF
:DEGREES
1223
root -0.886635 14.8176 -17.8552 10.257 16.5667 0.369401
lfemur -1.21188 -1.3385 -8.3239
ltibia 61.173 -0 0
lfoot 4.30219 1.07846 -0.851286
ltoes -30.0586 0 0
rfemur -53.0414 -9.49978 23.7055
rtibia 74.4508 -0 0
rfoot -21.5852 -20.8726 -0.0184797
rtoes -6.2734 0 0
lowerback 12.731 1.40288 -2.42428
upperback -3.55246 1.48307 0.0686781
thorax -11.0978 0.871021 1.10076
lowerneck -1.19823 -8.43704 -9.63725
upperneck 0.435358 -11.2766 10.2291
head 1.48399 -5.59657 4.29909
lclavicle 1.72818e-14 -1.53064e-14 0
lhumerus -55.7879 -33.6474 117.734
lradius 86.4445 -0 0
lwrist 12.7002 0 0
lhand -28.3749 29.2607 0.641106
lfingers 7.12502 -0 0
lthumb -1.74762 59.176 0.616188
rclavicle 1.72818e-14 -1.53064e-14 0
rhumerus 64.7497 5.2322 -26.4003
rradius 93.7909 -0 0
rwrist -13.7831 0 0
rhand -28.9416 -33.586 -0.105189
rfingers 7.12502 -0 0
rthumb -2.29485 -63.5354 -0.102805
1224
root -0.895724 14.8304 -17.6534 10.4054 16.1159 0.199913
lfemur -1.58937 -1.46948 -8.38038
ltibia 62.0006 -0 0
lfoot 4.86478 0.261024 -0.721306
ltoes -30.0251 0 0
rfemur -52.8922 -9.14925 24.071
rtibia 74.4804 -0 0
rfoot -21.7073 -21.4385 -0.0332541
rtoes -6.1182 0 0
lowerback 12.6178 1.36637 -2.23194
upperback -3.59811 1.47084 0.0927962
thorax -11.0761 0.854239 1.02456
lowerneck -1.24463 -8.31267 -9.54473
upperneck 0.399438 -11.103 10.1635
head 1.45132 -5.50897 4.276
lclavicle 1.72818e-14 -1.53064e-14 0
lhumerus -55.3349 -34.1187 118.112
lradius 85.9406 -0 0
lwrist 11.0182 0 0
lhand -28.7377 28.6706 0.573553
lfingers 7.12502 -0 0
lthumb -2.098 58.5919 0.551547
rclavicle 1.72818e-14 -1.53064e-14 0
rhumerus 64.833 5.61247 -26.3492
rradius 93.8767 -0 0
rwrist -14.3433 0 0
rhand -28.7353 -33.7351 -0.094787
rfingers 7.12502 -0 0
rthumb -2.09573 -63.6895 -0.0925161
1225
root -0.904594 14.8437 -17.4321 10.5403 15.6845 0.0384007
lfemur -1.95332 -1.59337 -8.43938
ltibia 62.8046 -0 0
lfoot 5.38781 -0.511692 -0.59398
ltoes -29.9814 0 0
rfemur -52.7413 -8.81134 24.4134
rtibia 74.4961 -0 0
rfoot -21.8084 -21.971 -0.0442259
rtoes -5.9643 0 0
lowerback 12.5075 1.33274 -2.05059
upperback -3.6401 1.46006 0.115206
thorax -11.0525 0.838711 0.952404
lowerneck -1.28946 -8.19394 -9.45744
upperneck 0.369545 -10.9376 10.1009
head 1.4217 -5.4255 4.25388
lclavicle 1.72818e-14 -1.53064e-14 0
lhumerus -54.9021 -34.5652 118.47
lradius 85.464 -0 0
lwrist 9.40606 0 0
lhand -29.0774 28.0809 0.501291
lfingers 7.12502 -0 0
lthumb -2.42605 58.0076 0.482318
rclavicle 1.72818e-14 -1.53064e-14 0
rhumerus 64.9136 5.97264 -26.3032
rradius 93.958 -0 0
rwrist -14.8682 0 0
rhand -28.5422 -33.8865 -0.0834689
rfingers 7.12502 -0 0
rthumb -1.90926 -63.8454 -0.0813582
1226
root -0.913257 14.8574 -17.1903 10.6611 15.2741 -0.114312
lfemur -2.30249 -1.70965 -8.50099
ltibia 63.5822 -0 0
lfoot 5.8692 -1.23677 -0.471361
ltoes -29.9273 0 0
rfemur -52.5892 -8.48709 24.7312
rtibia 74.4974 -0 0
rfoot -21.8876 -22.4678 -0.0508253
rtoes -5.81208 0 0
lowerback 12.4004 1.30209 -1.88101
upperback -3.6782 1.4508 0.135799
thorax -11.0271 0.824513 0.884574
lowerneck -1.3326 -8.08132 -9.37575
upperneck 0.345967 -10.7811 10.0418
head 1.3953 -5.34649 4.23281
lclavicle 1.72818e-14 -1.53064e-14 0
lhumerus -54.491 -34.9848 118.809
lradius 85.0164 -0 0
lwrist 7.86976 0 0
lhand -29.3924 27.493 0.424827
lfingers 7.12502 -0 0
lthumb -2.73031 57.4245 0.408977
rclavicle 1.72818e-14 -1.53064e-14 0
rhumerus 64.9912 6.3113 -26.2628
rradius 94.0346 -0 0
rwrist -15.3554 0 0
rhand -28.363 -34.0398 -0.0712907
rfingers 7.12502 -0 0
rthumb -1.73626 -64.0029 -0.0693909
1227
root -0.921727 14.8718 -16.9268 10.7667 14.8862 -0.257397
lfemur -2.63562 -1.81781 -8.56532
ltibia 64.331 -0 0
lfoot 6.30686 -1.91133 -0.355508
ltoes -29.8625 0 0
rfemur -52.4367 -8.17756 25.0228
rtibia 74.4838 -0 0
rfoot -21.9442 -22.9268 -0.052501
rtoes -5.66193 0 0
lowerback 12.2969 1.27453 -1.72398
upperback -3.7122 1.44312 0.154469
thorax -10.9999 0.811719 0.821365
lowerneck -1.37396 -7.97527 -9.29998
upperneck 0.32899 -10.6341 9.98624
head 1.37229 -5.27226 4.2129
lclavicle 1.72818e-14 -1.53064e-14 0
lhumerus -54.1028 -35.3753 119.127
lradius 84.6 -0 0
lwrist 6.41512 0 0
lhand -29.6813 26.9082 0.344709
lfingers 7.12502 -0 0
lthumb -3.00931 56.8438 0.33204
rclavicle 1.72818e-14 -1.53064e-14 0
rhumerus 65.0654 6.62699 -26.2281
rradius 94.1061 -0 0
rwrist -15.8025 0 0
rhand -28.1986 -34.1949 -0.0583165
rfingers 7.12502 -0 0
rthumb -1.57756 -64.1617 -0.0566811
1228
root -0.930015 14.8867 -16.6406 10.8563 14.5222 -0.390029
lfemur -2.95147 -1.91733 -8.63246
ltibia 65.0483 -0 0
lfoot 6.69878 -2.53249 -0.248467
ltoes -29.7867 0 0
rfemur -52.2845 -7.88375 25.2867
rtibia 74.4549 -0 0
rfoot -21.9773 -23.3456 -0.0487275
rtoes -5.51425 0 0
lowerback 12.1973 1.25016 -1.58026
upperback -3.74188 1.4371 0.171106
thorax -10.9708 0.800403 0.763068
lowerneck -1.41341 -7.87625 -9.23048
upperneck 0.318905 -10.4972 9.93462
head 1.35283 -5.20311 4.19422
lclavicle 1.72818e-14 -1.53064e-14 0
lhumerus -53.7391 -35.7345 119.423
lradius 84.2165 -0 0
lwrist 5.04801 0 0
lhand -29.9424 26.3278 0.261525
lfingers 7.12502 -0 0
lthumb -3.26158 56.2668 0.252065
rclavicle 1.72818e-14 -1.53064e-14 0
rhumerus 65.1359 6.91828 -26.1997
rradius 94.1723 -0 0
rwrist -16.2073 0 0
rhand -28.0499 -34.3513 -0.0446179
rfingers 7.12502 -0 0
rthumb -1.43399 -64.3214 -0.0433029
1229
root -0.938135 14.9023 -16.3306 10.929 14.1836 -0.511383
lfemur -3.24879 -2.00768 -8.70251
ltibia 65.7316 -0 0
lfoot 7.04293 -3.09739 -0.152247
ltoes -29.6998 0 0
rfemur -52.1332 -7.60668 25.5214
rtibia 74.4101 -0 0
rfoot -21.9861 -23.7219 -0.0390125
rtoes -5.36942 0 0
lowerback 12.1021 1.22909 -1.45063
upperback -3.76704 1.43279 0.185605
thorax -10.9398 0.790637 0.709976
lowerneck -1.45084 -7.78472 -9.1676
upperneck 0.316 -10.3711 9.88717
head 1.3371 -5.13938 4.17688
lclavicle 1.72818e-14 -1.53064e-14 0
lhumerus -53.4011 -36.0601 119.697
lradius 83.868 -0 0
lwrist 3.77432 0 0
lhand -30.1744 25.7531 0.175902
lfingers 7.12502 -0 0
lthumb -3.48569 55.6948 0.169645
rclavicle 1.72818e-14 -1.53064e-14 0
rhumerus 65.2023 7.18374 -26.178
rradius 94.2327 -0 0
rwrist -16.5674 0 0
rhand -27.9178 -34.5089 -0.0302739
rfingers 7.12502 -0 0
rthumb -1.30637 -64.4818 -0.0293372
1230
root -0.946098 14.9184 -15.9958 10.9839 13.872 -0.620642
lfemur -3.52633 -2.08833 -8.77557
ltibia 66.3782 -0 0
lfoot 7.33729 -3.60313 -0.0688009
ltoes -29.6016 0 0
rfemur -51.9835 -7.34735 25.7253
rtibia 74.3491 -0 0
rfoot -21.9697 -24.0536 -0.0229042
rtoes -5.22783 0 0
lowerback 12.0116 1.21141 -1.33587
upperback -3.78746 1.43026 0.197857
thorax -10.907 0.782494 0.662381
lowerneck -1.48615 -7.70114 -9.11167
upperneck 0.320567 -10.2564 9.84416
head 1.32526 -5.08138 4.16097
lclavicle 1.72818e-14 -1.53064e-14 0
lhumerus -53.0904 -36.3499 119.947
lradius 83.5564 -0 0
lwrist 2.59991 0 0
lhand -30.3757 25.1853 0.0884977
lfingers 7.12502 -0 0
lthumb -3.6802 55.129 0.0854052
rclavicle 1.72818e-14 -1.53064e-14 0
rhumerus 65.2642 7.42193 -26.1631
rradius 94.2871 -0 0
rwrist -16.8806 0 0
rhand -27.803 -34.6674 -0.0153704
rfingers 7.12502 -0 0
rthumb -1.19554 -64.6425 -0.0148717
1231
root -0.953919 14.9353 -15.635 371.02 13.5888 359.283
lfemur -3.78286 -2.15874 -8.85175
ltibia 66.9857 0 0
lfoot 7.57986 -4.04685 0
ltoes -29.4918 0 0
rfemur -51.8362 -7.10674 25.8968
rtibia 74.2712 0 0
rfoot -21.9274 -24.3383 0
rtoes -5.08988 0 0
lowerback 11.9262 1.19723 -1.23674
upperback -3.80293 1.42959 0.207756
thorax -10.8723 0.776045 0.620577
lowerneck -1.51922 -7.62598 -9.06303
upperneck 0.332896 -10.1536 9.80585
head 1.31749 -5.02942 4.14657
lclavicle -2.73065e-14 -1.84249e-14 0
lhumerus -52.8082 -36.6017 120.172
lradius 83.2836 0 0
lwrist 1.53065 0 0
lhand -30.5449 24.6257 0
lfingers 7.12502 0 0
lthumb -3.84369 54.5707 0
rclavicle -2.73065e-14 -1.84249e-14 0
rhumerus 65.3214 7.63141 -26.1557
rradius 94.3351 0 0
rwrist -17.1445 0 0
rhand -27.7064 -34.8265 0
rfingers 7.12502 0 0
rthumb -1.1023 -64.8034 0
1232
root -0.960621 14.952 -15.2727 11.052 13.1031 -0.942099
lfemur -4.64299 -1.86204 -8.90813
ltibia 67.0698 -0 0
lfoot 7.89724 -4.19783 0.105683
ltoes -28.815 0 0
rfemur -50.9763 -6.87996 26.1474
rtibia 73.9302 -0 0
rfoot -21.9023 -24.6427 -0.0276528
rtoes -5.4331 0 0
lowerback 11.7821 1.19922 -1.07064
upperback -3.84865 1.46329 0.25785
thorax -10.833 0.785178 0.58039
lowerneck -1.59379 -7.50092 -8.96898
upperneck 0.416629 -9.98596 9.72711
head 1.32952 -4.94276 4.11724
lclavicle -2.73065e-14 -1.84249e-14 0
lhumerus -51.3076 -37.3105 119.812
lradius 83.1649 -0 0
lwrist 1.38408 0 0
lhand -30.7012 24.7131 -0.0187591
lfingers 7.12502 -0 0
lthumb -3.99464 54.6625 -0.0174985
rclavicle -2.73065e-14 -1.84249e-14 0
rhumerus 64.6857 8.7134 -26.4141
rradius 94.3084 -0 0
rwrist -17.8197 0 0
rhand -27.2889 -34.7833 0.0193662
rfingers 7.12502 -0 0
rthumb -0.699668 -64.7489 0.0216978
1233
root -0.965292 14.9676 -14.933 11.071 12.5931 -1.1798
lfemur -5.58385 -1.51456 -8.97696
ltibia 67.1015 -0 0
lfoot 8.19744 -4.29215 0.206417
ltoes -28.0448 0 0
rfemur -50.0142 -6.65578 26.3953
rtibia 73.5332 -0 0
rfoot -21.8521 -24.931 -0.0535643
rtoes -5.83047 0 0
lowerback 11.6278 1.20554 -0.901752
upperback -3.89506 1.50313 0.311825
thorax -10.7885 0.797334 0.54217
lowerneck -1.67434 -7.3706 -8.87171
upperneck 0.517527 -9.81203 9.64448
head 1.34712 -4.85271 4.08619
lclavicle -2.73065e-14 -1.84249e-14 0
lhumerus -49.6284 -38.0528 119.342
lradius 83.0786 -0 0
lwrist 1.36283 0 0
lhand -30.8416 24.8444 -0.0347567
lfingers 7.12502 -0 0
lthumb -4.13014 54.7979 -0.0323481
rclavicle -2.73065e-14 -1.84249e-14 0
rhumerus 63.9513 9.8954 -26.7293
rradius 94.2702 -0 0
rwrist -18.5257 0 0
rhand -26.8382 -34.7276 0.0402656
rfingers 7.12502 -0 0
rthumb -0.264977 -64.68 0.0451247
